<svg id="fad6bd40-d7a1-475a-8cb8-f1a0445f95b8" xmlns="http://www.w3.org/2000/svg" viewBox="0 0 782.13 524.33"><defs><style>.cls-1{fill:#3f3d56;}.cls-2{fill:#e6e6e6;}.cls-3{fill:#ffb8b8;}.cls-4{fill:#1e5e20;}.cls-5{opacity:0.2;isolation:isolate;}</style></defs><path class="cls-1" d="M365.54,247H10.72A10.73,10.73,0,0,1,0,236.25V10.72A10.73,10.73,0,0,1,10.72,0H365.54a10.73,10.73,0,0,1,10.72,10.72V236.25A10.73,10.73,0,0,1,365.54,247ZM10.72,2.38a8.36,8.36,0,0,0-8.34,8.34V236.25a8.35,8.35,0,0,0,8.34,8.34H365.54a8.34,8.34,0,0,0,8.33-8.34V10.72a8.35,8.35,0,0,0-8.33-8.34Z" transform="translate(0 0)"/><circle class="cls-2" cx="217.01" cy="143.94" r="66"/><path class="cls-2" d="M725.35,522.89a246.45,246.45,0,0,1,20.38-77.74q4.6-10.27,10.13-20.1a1.5,1.5,0,0,0-2.59-1.51,249.61,249.61,0,0,0-27.78,76.65q-2.1,11.28-3.14,22.7c-.18,1.92,2.82,1.91,3,0Z" transform="translate(0 0)"/><circle class="cls-2" cx="763.13" cy="410.86" r="19"/><path class="cls-2" d="M727.29,523.39A159.9,159.9,0,0,1,740.52,473q3-6.66,6.57-13a1,1,0,0,0-1.68-1,161.78,161.78,0,0,0-18,49.73q-1.35,7.3-2,14.72c-.12,1.25,1.83,1.24,1.94,0Z" transform="translate(0 0)"/><circle class="cls-2" cx="751.8" cy="450.72" r="12.33"/><path class="cls-2" d="M724.84,522.23a159.6,159.6,0,0,1-20.59-47.9q-1.75-7.09-2.84-14.32a1,1,0,0,0-1.93.26,161.81,161.81,0,0,0,16.37,50.3q3.43,6.59,7.45,12.86c.68,1.05,2.21-.15,1.54-1.2Z" transform="translate(0 0)"/><circle class="cls-2" cx="699.46" cy="449.85" r="12.33"/><path class="cls-3" d="M626.23,344.49a10.05,10.05,0,0,0-2.86-13.93,9.38,9.38,0,0,0-1.56-.84l2.59-35.64-16.2,9.07,0,32.45a10.11,10.11,0,0,0,18,8.89Z" transform="translate(0 0)"/><path class="cls-4" d="M622.2,206l4.43,113.41-18-1-4-119,3.79-1.78A9.66,9.66,0,0,1,622.2,206Z" transform="translate(0 0)"/><polygon class="cls-3" points="566.53 512.2 554.27 512.2 548.44 464.91 566.53 464.91 566.53 512.2"/><path class="cls-2" d="M545.51,508.7h23.65v14.88H530.63A14.88,14.88,0,0,1,545.51,508.7Z" transform="translate(0 0)"/><polygon class="cls-3" points="668.53 497.55 657.41 502.7 632.25 462.24 648.67 454.64 668.53 497.55"/><path class="cls-2" d="M648,503.2l21.46-9.93h0l6.25,13.51h0l-35,16.18h0A14.89,14.89,0,0,1,648,503.2Z" transform="translate(0 0)"/><path class="cls-2" d="M537.42,357.87l12.64,144.29,17-2,12.57-131.8,69.43,125.8,18-5s-57.93-173.3-62.43-187.8c-4.93-15.89-44-22-44-22l-1.5-1.5C542.34,300.46,535.62,329.78,537.42,357.87Z" transform="translate(0 0)"/><circle class="cls-3" cx="604.78" cy="160.5" r="24.56"/><path class="cls-4" d="M622.06,198.16l-18.93,98.7s-25.94-5.18-35.18-11.42c-3.66-2.48-7-5-9.78-7.36a119.21,119.21,0,0,1-9-8.22s6.64-32.61,9-41.34c2.75-10.11,12.19-21.89,19.54-29.91a21.76,21.76,0,0,1,21.48-6.36Z" transform="translate(0 0)"/><path class="cls-5" d="M568,285.44c-3.66-2.48-7-5-9.78-7.36,1-14.94,23-46.22,31.94-46.22C590.11,231.86,592.22,280.07,568,285.44Z" transform="translate(0 0)"/><path class="cls-3" d="M522.64,324.68a10.05,10.05,0,0,0,6-12.88,9.43,9.43,0,0,0-.75-1.61l23.36-27-18.41-2.4L513.51,306.8a10.11,10.11,0,0,0,9.13,17.88Z" transform="translate(0 0)"/><path class="cls-4" d="M588,193.39a17.14,17.14,0,0,0-3,.34,12.5,12.5,0,0,0-8.91,7.8l-28.88,60.33-31,33,15.5,12.5,49-44,19.57-53.28A12.74,12.74,0,0,0,588,193.39Z" transform="translate(0 0)"/><path class="cls-2" d="M606.23,184.83c3.5-5.23,6.26-12.48,2.41-17.46s-11.3-4.19-17.11-6.37c-8.11-3-12.81-12.55-11.34-21.07s8.31-15.6,16.46-18.49,17.35-2,25.34,1.38c9.82,4.1,18.26,12,21.79,22.08s1.65,22.1-5.69,29.82c-7.86,8.28-20.2,10.49-31.62,10.36" transform="translate(0 0)"/><path class="cls-2" d="M644.8,155.87c1,5.59,7.13,8.77,12.77,9.47s11.47-.2,17,1.27c9.67,2.58,16.05,11.88,19.56,21.26s5.07,19.5,9.64,28.41,13.41,16.77,23.38,15.94a25.73,25.73,0,0,1-48.39-1.57c-3.67-11.31.54-24.81-5.87-34.83-3.55-5.55-9.67-8.81-15.58-11.71s-12.1-5.89-16.06-11.15-4.75-13.56.13-18" transform="translate(0 0)"/><path class="cls-1" d="M764.4,524.11H444.11a1.19,1.19,0,1,1,0-2.38H764.4a1.19,1.19,0,0,1,0,2.38Z" transform="translate(0 0)"/><path class="cls-1" d="M197.05,223.15a67,67,0,1,1,67-67A67,67,0,0,1,197.05,223.15Zm0-132a65,65,0,1,0,65,65h0A65.07,65.07,0,0,0,197.05,91.16Z" transform="translate(0 0)"/><polygon class="cls-4" points="154.97 37.03 93.25 143.94 216.7 143.94 154.97 37.03 93.25 143.94 216.7 143.94 154.97 37.03"/></svg>