<svg id="ae172ca5-b526-4039-8daf-e6c3aac0c67e" xmlns="http://www.w3.org/2000/svg" viewBox="0 0 858.08 750.01"><defs><style>.cls-1{fill:#e6e6e6;}.cls-2{fill:#3f3d56;}.cls-3{fill:#fff;}.cls-4{fill:#ffb8b8;}.cls-5{fill:#1e5e20;}</style></defs><path class="cls-1" d="M78.61,668.91a102.68,102.68,0,0,0-9-28.89L69,638.69,64.19,644l3.54-7.89-.23-.46a191,191,0,0,0-10.37-18l-.7-1.07-.94,1,.66-1.46-.33-.49c-4.69-7-8.29-11.47-8.32-11.52l-1-1.25-.66,1.49c-.12.28-12,27.69-13.59,54.79l0,.42,8,9.68L32,664.14l0,1.86a77.83,77.83,0,0,0,.65,9.53c.36,2.71.78,5.37,1.27,8a4.3,4.3,0,0,1,2.17.68q-.84-4.33-1.46-8.91c-.32-2.44-.51-4.92-.59-7.39l15.79,9.92L34.25,658.87c1.42-22.9,10.26-46,12.75-52.07,1.33,1.72,3.84,5.08,6.85,9.56l-5.47,12.18,7.79-8.64q5.07,7.89,9.33,16.25l-8.42,18.76,11.38-12.62a100.72,100.72,0,0,1,8.17,26.92c2,15,1.6,29.49-1.1,40.69C73,720.63,68.4,727.22,63,728a8.55,8.55,0,0,1-3.3-.2,4.89,4.89,0,0,1-3,.91h-.29a11.56,11.56,0,0,0,5.42,1.45,9.32,9.32,0,0,0,1.4-.1c6.3-.9,11.33-7.88,14.16-19.64C80.23,699,80.64,684.23,78.61,668.91Z" transform="translate(0 0)"/><path class="cls-1" d="M61,729.36c-8.23,0-20.11-4.53-31.89-12.78a51.13,51.13,0,0,1-5-4l-1.32-1.21,5-1.43-6.64-.25-.28-.29C8.43,696.38.68,678,.61,677.78L0,676.32l1.57.07c.16,0,3.9.19,9.53,1l.35,0h0l1.23.19a123.53,123.53,0,0,1,13.63,2.86l.48.13,1.5,3.69L28.06,681l1.37.4a66.08,66.08,0,0,1,18.33,8.5c17.91,12.54,27.83,28.22,22.59,35.7C68.56,728.14,65.26,729.36,61,729.36ZM26.84,712.31c1.09.93,2.23,1.81,3.4,2.64,16.41,11.48,34,15.83,38.47,9.48S63,703,46.63,691.53a63.74,63.74,0,0,0-16.38-7.81l.89,12.91-5.83-14.35c-3.84-1-7.76-1.86-11.69-2.5l.64,9.38-4-9.88c-3.11-.43-5.61-.66-7.14-.78,2.08,4.56,8.94,18.65,18.94,29.24l18.33.67Z" transform="translate(0 0)"/><rect class="cls-2" x="0.34" y="728.23" width="324.03" height="2.24"/><path class="cls-1" d="M777.19,173h-4V63.4A63.41,63.41,0,0,0,709.78,0H477.7a63.4,63.4,0,0,0-63.4,63.4v601a63.4,63.4,0,0,0,63.4,63.4H709.78a63.41,63.41,0,0,0,63.41-63.4V250.92h4Z" transform="translate(0 0)"/><path class="cls-3" d="M712.34,16.49H682.05a22.51,22.51,0,0,1-20.83,31h-133a22.52,22.52,0,0,1-20.83-31H479.14a47.35,47.35,0,0,0-47.35,47.35h0v600.1a47.35,47.35,0,0,0,47.35,47.34h233.2a47.35,47.35,0,0,0,47.35-47.34h0V63.84a47.35,47.35,0,0,0-47.35-47.35Z" transform="translate(0 0)"/><path class="cls-2" d="M602.08,245a73,73,0,1,1,73-73h0A73.08,73.08,0,0,1,602.08,245Zm0-144a71,71,0,1,0,71,71,71,71,0,0,0-71-71Z" transform="translate(0 0)"/><path class="cls-2" d="M588.08,666a37,37,0,1,1,37-37A37,37,0,0,1,588.08,666Zm0-72a35,35,0,1,0,35,35h0A35,35,0,0,0,588.08,594Z" transform="translate(0 0)"/><path class="cls-2" d="M858.08,448.42H708.5V298.84H858.08Zm-147.58-2H856.08V300.84H710.5Z" transform="translate(0 0)"/><path class="cls-2" d="M542.19,528.42H461.08V447.31h81.11Zm-79.11-2h77.11V449.31H463.08Z" transform="translate(0 0)"/><circle class="cls-1" cx="86.28" cy="207.44" r="32.93"/><circle class="cls-1" cx="141.16" cy="246.64" r="39.2"/><path class="cls-4" d="M186.35,584l-19.22,34s-25.15-25.15-11.84-31.8L176,579.6Z" transform="translate(0 0)"/><polygon class="cls-4" points="152.34 675 158.25 700.14 140.5 706.06 134.59 677.22 152.34 675"/><path class="cls-1" d="M189.34,421.24l3.81,38.9s68.63,63.26,45,86.93S184.87,590,184.87,590l-13.31-9.62,30.32-41.41L140.5,495.3,154.55,678l-21.44,5.91L85,499s-14.79-59.16,21.45-88.74Z" transform="translate(0 0)"/><path class="cls-1" d="M145.68,699.4s11.09-14,16.27-1.48a175.81,175.81,0,0,1,8.13,26.62s19.23,28.84-10.35,25.15-20.71-17-20.71-17a9.9,9.9,0,0,1-4.43-9.61c.74-6.66,4.43-22.19,4.43-22.19S142.72,694.23,145.68,699.4Z" transform="translate(0 0)"/><path class="cls-1" d="M176.37,602.9s6.28,6.28-4.07,16.64c0,0-1.48,28.84-14.79,25.88s-17.75-39.19-16.27-42.89-2.22-31.06,6.66-30.32,20,10.35,20,10.35-19.22,17.75-.73,29.58C167.13,612.14,171.93,610.29,176.37,602.9Z" transform="translate(0 0)"/><path class="cls-4" d="M121.28,317.08l56.2,1.48c-12.39-17.57-14.72-38.31-9.62-61.38l-37,7.4C138,283.41,138.13,299.56,121.28,317.08Z" transform="translate(0 0)"/><path class="cls-5" d="M103.53,412.48l87.26,24.4,16.75-115.37a22.21,22.21,0,0,0-19.62-20.6l-20.06-2.31-36.23,3.69-17.14,4.85A22.12,22.12,0,0,0,98.4,329.43Z" transform="translate(0 0)"/><path class="cls-5" d="M187.09,414.7l14,16.27,34-36.24L222.51,332a38.41,38.41,0,0,0-30.44-30.14l-9.42-1.81,20.71,84.31Z" transform="translate(0 0)"/><path class="cls-4" d="M187.79,437.56l10.39-14-8.87-8.87-14.41,3.76A12.22,12.22,0,0,0,169,438.52h0a12.22,12.22,0,0,0,17.26.78A12.34,12.34,0,0,0,187.79,437.56Z" transform="translate(0 0)"/><path class="cls-5" d="M119.06,419.13,105,435.4,71,399.17l12.65-62.71a38.42,38.42,0,0,1,30.44-30.15l9.41-1.8-20.7,84.3Z" transform="translate(0 0)"/><path class="cls-4" d="M118.36,442,108,428l8.87-8.88,14.41,3.76A12.23,12.23,0,0,1,137.19,443h0a12.22,12.22,0,0,1-18.83-1Z" transform="translate(0 0)"/><circle class="cls-4" cx="146.58" cy="249.81" r="25.67"/><path class="cls-1" d="M174.09,247.42H130.18l-13.32-18c13.11-11.48,29.52-13.53,47.82-10.19Z" transform="translate(0 0)"/><circle class="cls-1" cx="562.08" cy="160.02" r="60"/><rect class="cls-5" x="684.91" y="273.19" width="131.18" height="131.18"/><rect class="cls-1" x="484.06" y="434.02" width="70.32" height="70.32"/><circle class="cls-5" cx="568.08" cy="623.02" r="30"/></svg>