<svg id="bc52c4b0-5495-47d6-8fbf-e718e11a33f1" xmlns="http://www.w3.org/2000/svg" viewBox="0 0 803 617"><defs><style>.cls-1{fill:#f0f0f0;}.cls-2{fill:#3f3d56;}.cls-3{fill:#1e5e20;}.cls-4{opacity:0.1;isolation:isolate;}.cls-5{fill:#e6e6e6;}.cls-6{fill:#ffb8b8;}.cls-7{fill:#ff6584;}</style></defs><polygon class="cls-1" points="184.9 427 247.07 329.23 107.83 240.69 35.93 353.77 151.09 427 184.9 427"/><path class="cls-2" d="M273,457.5H119v-31H273Zm-152-2H271v-27H121Z"/><circle class="cls-3" cx="254" cy="442" r="10"/><circle class="cls-3" cx="226" cy="442" r="10"/><circle class="cls-3" cx="198" cy="442" r="10"/><circle class="cls-3" cx="170" cy="442" r="10"/><circle class="cls-3" cx="142" cy="442" r="10"/><path class="cls-1" d="M456,113V37h38V0H308V186H467V167.81A25.82,25.82,0,0,1,492.81,142H494V113Z"/><rect class="cls-3" x="538" y="480" width="124" height="26"/><rect class="cls-1" x="507" y="352" width="182" height="24"/><rect class="cls-2" y="615" width="778" height="2"/><path class="cls-2" d="M720.19,617H492.81A26.84,26.84,0,0,1,466,590.19V167.81A26.84,26.84,0,0,1,492.81,141H720.19A26.84,26.84,0,0,1,747,167.81V590.19A26.84,26.84,0,0,1,720.19,617ZM492.81,143A24.85,24.85,0,0,0,468,167.81V590.19A24.85,24.85,0,0,0,492.81,615H720.19A24.85,24.85,0,0,0,745,590.19V167.81A24.85,24.85,0,0,0,720.19,143Z"/><path class="cls-2" d="M579.5,161a6,6,0,1,1,6-6A6,6,0,0,1,579.5,161Zm0-10a4,4,0,1,0,4,4A4,4,0,0,0,579.5,151Z"/><rect class="cls-2" x="594.5" y="154" width="44" height="2"/><path class="cls-3" d="M729,170v80a80,80,0,0,1-80-80Z"/><path class="cls-2" d="M730,590H483V169H730Zm-245-2H728V171H485Z"/><circle class="cls-4" cx="671" cy="218" r="27"/><circle class="cls-3" cx="667" cy="221" r="27"/><rect class="cls-5" x="494" y="186" width="38" height="14"/><rect class="cls-5" x="515" y="319" width="38" height="14"/><path class="cls-2" d="M699,371H515V345H699Zm-182-2H697V347H517Z"/><rect class="cls-1" x="507" y="428" width="182" height="24"/><rect class="cls-5" x="515" y="395" width="38" height="14"/><path class="cls-2" d="M699,447H515V421H699Zm-182-2H697V423H517Z"/><path class="cls-2" d="M670,500H544V472H670Zm-124-2H668V474H546Z"/><path class="cls-3" d="M694,361a10,10,0,0,1-17.71,6.37h0a10,10,0,1,1,17.43-8.73h0A10.43,10.43,0,0,1,694,361Z"/><path class="cls-4" d="M694,361a10,10,0,0,1-17.71,6.37h0A10.43,10.43,0,0,1,676,365a10,10,0,0,1,17.71-6.37h0A10.43,10.43,0,0,1,694,361Z"/><circle class="cls-3" cx="688" cy="367" r="10"/><path class="cls-3" d="M694,437a10,10,0,0,1-17.71,6.37h0a10,10,0,1,1,17.43-8.73h0A10.43,10.43,0,0,1,694,437Z"/><path class="cls-4" d="M694,437a10,10,0,0,1-17.71,6.37h0A10.43,10.43,0,0,1,676,441a10,10,0,0,1,17.71-6.37h0A10.43,10.43,0,0,1,694,437Z"/><circle class="cls-3" cx="688" cy="443" r="10"/><rect class="cls-1" x="468" y="48" width="52" height="52"/><path class="cls-2" d="M671,86a12,12,0,1,1,12-12A12,12,0,0,1,671,86Zm0-22a10,10,0,1,0,10,10A10,10,0,0,0,671,64Z"/><path class="cls-2" d="M407,253H381V227h26Zm-24-2h22V229H383Z"/><path class="cls-2" d="M803,447H777V421h26Zm-24-2h22V423H779Z"/><path class="cls-5" d="M290,272.67l4.46,2.4,15.19,8.18,24.51,13.21L348.44,270a21.53,21.53,0,0,0-8.71-29.17l0,0a28.59,28.59,0,0,0-33.38,4.53h0a29,29,0,0,0-5.38,7.08Z"/><polygon class="cls-6" points="356.9 542.94 353.91 575.88 342.68 577.37 335.19 539.94 356.9 542.94"/><path class="cls-5" d="M339.68,577.37s14.23-7.48,17.22-1.49c0,0-2.25,18,6.74,20.21s12.72,18,0,19.46-21-3-25.46-3,0-15.72,0-15.72Z"/><polygon class="cls-6" points="266.32 542.94 269.31 575.88 280.54 577.37 288.03 539.94 266.32 542.94"/><path class="cls-5" d="M283.53,577.37s-14.22-7.48-17.21-1.49c0,0,2.24,18-6.74,20.21s-12.73,18,0,19.46,21-3,25.45-3,0-15.72,0-15.72Z"/><circle class="cls-6" cx="327.7" cy="259.21" r="19.46"/><path class="cls-6" d="M265.57,297.39l15.72,24.7,18.71-1.5,30.7,2.25s2.9-5.79,5.26-11.43a44.08,44.08,0,0,0,3-8.78c.75-5.24-9.73-10.48-9.73-10.48l-1.1-.24c-.91-.22-2.32-.58-3.86-1.1-3.48-1.19-7.67-3.19-8.51-6.15-1.5-5.24,9.73-12.73,9.73-12.73L312,259.21s-12,16.62-26.51,20.41a24.2,24.2,0,0,1-2.56.53l-.12,0C267.06,282.41,265.57,297.39,265.57,297.39Z"/><path class="cls-6" d="M273.8,290.65l-8.23,6.74s-6.74,32.19-4.49,41.17-.75,17.22-.75,18.72-6.74,57.64-6.74,57.64-13.48,29.95.75,26.95,9-32.94,9-32.94l17.22-52.4V312.36Z"/><path class="cls-6" d="M332.94,296.64l6,4.49,3,62.88,22.46,53.91s16.47,26.2,6,26.95-17.22-26.95-17.22-26.95l-20.22-51.66-3-50.16Z"/><path class="cls-5" d="M295.51,301.13s15,10.48,38.93,6.74c0,0,6.74,13.47,3,21s4.49,25.45,6,27.7,18.72,48.66,24.71,98.82,22.46,84.59,8.23,89.08-43.42,9.74-46.41,5.24-7.49-116-7.49-116l-8.23,42.67s11.23,72.62,3,74.11-59.89-3-58.39-12S275.3,482.3,275.3,482.3,274.55,388,289.52,370c0,0,6-9.73-2.24-22.46s-7.49-32.94-7.49-32.94S285.78,314.6,295.51,301.13Z"/><polygon class="cls-5" points="282.91 280.14 295.51 307.87 298.51 306.37 285.47 279.62 282.91 280.14"/><path class="cls-5" d="M324.24,290.81l9.45,20.8,2.27-.2-.77-3.54-7.09-16C327.19,291.69,325.78,291.33,324.24,290.81Z"/><path class="cls-5" d="M294.46,275.07a12.32,12.32,0,0,0,22.61,2.2c-9.47-12.38-1.34-20.16,14-26a12.31,12.31,0,0,0-1.33-13.66,28.65,28.65,0,0,0-23.46,7.73h0l-10.93,20.28A12.31,12.31,0,0,0,294.46,275.07Z"/><ellipse class="cls-6" cx="316.1" cy="261.45" rx="2.62" ry="4.49"/><path class="cls-5" d="M323.91,254.12l22.5,10.2,4.13-9.1a21.46,21.46,0,0,0-4.35-9.08l-15.48-7Z"/><circle class="cls-3" cx="378" cy="445" r="10"/><circle class="cls-7" cx="56.96" cy="507.91" r="6.54"/><rect class="cls-5" x="87.98" y="541.97" width="2" height="74.41"/><circle class="cls-5" cx="88.98" cy="541.97" r="10.52"/><path class="cls-5" d="M89,587.83s-1.51-32.33-32.32-28.57"/></svg>